<?xml version="1.0" encoding="utf-8"?>
<!-- Generator: Adobe Illustrator 15.1.0, SVG Export Plug-In . SVG Version: 6.00 Build 0)  -->
<!DOCTYPE svg PUBLIC "-//W3C//DTD SVG 1.1//EN" "http://www.w3.org/Graphics/SVG/1.1/DTD/svg11.dtd">
<svg version="1.1" id="Layer_1" xmlns="http://www.w3.org/2000/svg" xmlns:xlink="http://www.w3.org/1999/xlink" x="0px" y="0px"
	 width="440px" height="514px" viewBox="0 0 440 514" enable-background="new 0 0 440 514" xml:space="preserve">
<rect fill="#FFFFFF" stroke="#666666" stroke-width="2" stroke-miterlimit="10" width="438" height="512"/>
<radialGradient id="SVGID_2_" cx="242.7144" cy="248.7109" r="44.8016" fx="278.2087" fy="221.3735" gradientUnits="userSpaceOnUse">
	<stop  offset="0" style="stop-color:#FFFFFF;stop-opacity:0.4"/>
	<stop  offset="0.9632" style="stop-color:#BA0024;stop-opacity:0.66"/>
</radialGradient>
<circle fill="url(#SVGID_2_)" stroke="#C1272D" stroke-miterlimit="10" cx="247" cy="270" r="36"/>
<radialGradient id="SVGID_4_" cx="255.8623" cy="377.7109" r="40.2818" fx="287.7758" fy="353.1314" gradientUnits="userSpaceOnUse">
	<stop  offset="0" style="stop-color:#FFFFFF;stop-opacity:0.4"/>
	<stop  offset="0.9632" style="stop-color:#BA0024;stop-opacity:0.66"/>
</radialGradient>
<path fill="url(#SVGID_4_)" stroke="#C1272D" stroke-miterlimit="10" d="M282,399c0,19.883-16.117,36-36,36s-6-14.117-6-34
	s-13.883-38,6-38S282,379.117,282,399z"/>
<radialGradient id="SVGID_6_" cx="128.7144" cy="81.7104" r="44.8018" gradientUnits="userSpaceOnUse">
	<stop  offset="0" style="stop-color:#FFFFFF;stop-opacity:0.4"/>
	<stop  offset="0.9632" style="stop-color:#000078;stop-opacity:0.66"/>
</radialGradient>
<circle fill="url(#SVGID_6_)" stroke="#2E3192" stroke-miterlimit="10" cx="133" cy="103" r="36"/>
<radialGradient id="SVGID_8_" cx="132.2856" cy="99.4517" r="7.467" gradientUnits="userSpaceOnUse">
	<stop  offset="0" style="stop-color:#FFFFFF"/>
	<stop  offset="0.9632" style="stop-color:#000000"/>
</radialGradient>
<circle fill="url(#SVGID_8_)" cx="133" cy="103" r="6"/>
<radialGradient id="SVGID_10_" cx="247.2861" cy="264.4521" r="7.4666" gradientUnits="userSpaceOnUse">
	<stop  offset="0" style="stop-color:#FFFFFF"/>
	<stop  offset="0.9632" style="stop-color:#000000"/>
</radialGradient>
<circle fill="url(#SVGID_10_)" cx="248" cy="268" r="6"/>
<radialGradient id="SVGID_12_" cx="304.7139" cy="81.7104" r="44.802" fx="340.2085" fy="54.3727" gradientUnits="userSpaceOnUse">
	<stop  offset="0" style="stop-color:#FFFFFF;stop-opacity:0.4"/>
	<stop  offset="0.9632" style="stop-color:#BA0024;stop-opacity:0.66"/>
</radialGradient>
<circle fill="url(#SVGID_12_)" stroke="#C1272D" stroke-miterlimit="10" cx="309" cy="103" r="36"/>
<radialGradient id="SVGID_14_" cx="308.2861" cy="99.4517" r="7.4669" gradientUnits="userSpaceOnUse">
	<stop  offset="0" style="stop-color:#FFFFFF"/>
	<stop  offset="0.9632" style="stop-color:#000000"/>
</radialGradient>
<circle fill="url(#SVGID_14_)" cx="309" cy="103" r="6"/>
<rect x="103" y="145" fill="none" width="97" height="20"/>
<text transform="matrix(1 0 0 1 103 157.2939)"><tspan x="0" y="0" font-family="'Times-Italic'" font-size="18">+s</tspan><tspan x="19.151" y="0" font-family="'Times-Roman'" font-size="18"> orbital</tspan></text>
<rect x="283" y="145" fill="none" width="72" height="24"/>
<text transform="matrix(1 0 0 1 283 157.2939)"><tspan x="0" y="0" font-family="'Times-Italic'" font-size="18">–s</tspan><tspan x="16.005" y="0" font-family="'Times-Roman'" font-size="18"> orbital</tspan></text>
<rect x="285" y="331" fill="none" width="119" height="16"/>
<text transform="matrix(1 0 0 1 292.4062 340.5625)" font-family="'Times-Roman'" font-size="14">nodal plane region</text>
<rect x="148" y="450.99" fill="none" width="172" height="24"/>
<text transform="matrix(1 0 0 1 148 467.3828)"><tspan x="0" y="0" font-family="'Times-Roman'" font-size="24">σ*</tspan><tspan x="25.348" y="0" font-family="'Times-Roman'" font-size="18"> antibonding orbital</tspan></text>
<g>
	<g>
		<line fill="none" stroke="#29ABE2" stroke-width="4" stroke-miterlimit="10" x1="62" y1="169" x2="172" y2="169"/>
		<g>
			<path fill="#29ABE2" d="M168.105,169l-4.383-7.206l0.246-0.163l11.75,4.667c4.094,0.9,8.188,1.801,12.281,2.702
				c-4.094,0.9-8.188,1.801-12.281,2.702l-11.75,4.667l-0.246-0.123L168.105,169z"/>
		</g>
	</g>
</g>
<g>
	<g>
		<line fill="none" stroke="#29ABE2" stroke-width="4" stroke-miterlimit="10" x1="271" y1="169" x2="381" y2="169"/>
		<g>
			<path fill="#29ABE2" d="M274.895,169l4.383-7.206l-0.246-0.163l-11.75,4.667c-4.094,0.9-8.188,1.801-12.281,2.702
				c4.094,0.9,8.188,1.801,12.281,2.702l11.75,4.667l0.246-0.123L274.895,169z"/>
		</g>
	</g>
</g>
<radialGradient id="SVGID_24_" cx="197.7144" cy="247.7109" r="44.8016" gradientUnits="userSpaceOnUse">
	<stop  offset="0" style="stop-color:#FFFFFF;stop-opacity:0.4"/>
	<stop  offset="0.9632" style="stop-color:#000078;stop-opacity:0.66"/>
</radialGradient>
<circle fill="url(#SVGID_24_)" stroke="#2E3192" stroke-miterlimit="10" cx="202" cy="269" r="36"/>
<radialGradient id="SVGID_26_" cx="187.5762" cy="377.7109" r="40.2818" gradientUnits="userSpaceOnUse">
	<stop  offset="0" style="stop-color:#FFFFFF;stop-opacity:0.4"/>
	<stop  offset="0.9632" style="stop-color:#000078;stop-opacity:0.66"/>
</radialGradient>
<path fill="url(#SVGID_26_)" stroke="#2E3192" stroke-miterlimit="10" d="M209,398c0,19.883,13.883,37-6,37s-36-16.117-36-36
	s16.117-36,36-36S209,378.117,209,398z"/>
<radialGradient id="SVGID_28_" cx="201.2856" cy="265.4521" r="7.4668" gradientUnits="userSpaceOnUse">
	<stop  offset="0" style="stop-color:#FFFFFF"/>
	<stop  offset="0.9632" style="stop-color:#000000"/>
</radialGradient>
<circle fill="url(#SVGID_28_)" cx="202" cy="269" r="6"/>
<radialGradient id="SVGID_30_" cx="247.2861" cy="394.4521" r="7.4666" gradientUnits="userSpaceOnUse">
	<stop  offset="0" style="stop-color:#FFFFFF"/>
	<stop  offset="0.9632" style="stop-color:#000000"/>
</radialGradient>
<circle fill="url(#SVGID_30_)" cx="248" cy="398" r="6"/>
<radialGradient id="SVGID_32_" cx="201.2856" cy="395.4521" r="7.4668" gradientUnits="userSpaceOnUse">
	<stop  offset="0" style="stop-color:#FFFFFF"/>
	<stop  offset="0.9632" style="stop-color:#000000"/>
</radialGradient>
<circle fill="url(#SVGID_32_)" cx="202" cy="399" r="6"/>
<rect fill="#D7EDFF" stroke="#666666" stroke-width="2" stroke-miterlimit="10" width="329" height="52"/>
<rect x="7" y="7" fill="none" width="319" height="26"/>
<text transform="matrix(1 0 0 1 18.0859 24.2559)"><tspan x="0" y="0" font-family="'Helvetica-Bold'" font-size="24">sigma </tspan><tspan x="76.031" y="0" font-family="'Helvetica-BoldOblique'" font-size="24">ant</tspan><tspan x="112.031" y="0" font-family="'Helvetica-BoldOblique'" font-size="24" letter-spacing="1">i</tspan><tspan x="120.499" y="0" font-family="'Helvetica-Bold'" font-size="24">b</tspan><tspan x="135.519" y="0" font-family="'Helvetica-Bold'" font-size="24">ond formation</tspan></text>
<rect x="91.012" y="29.999" fill="none" width="114" height="24"/>
<text transform="matrix(1 0 0 1 96.002 46.3667)" font-family="'Times-Italic'" font-size="24">s - orbitals</text>
<g>
	
		<line fill="none" stroke="#000000" stroke-width="0.5" stroke-miterlimit="10" x1="215.623" y1="254.045" x2="226.645" y2="243.023"/>
	
		<line fill="none" stroke="#000000" stroke-width="0.5" stroke-miterlimit="10" x1="212.53" y1="262.138" x2="228.948" y2="245.72"/>
	
		<line fill="none" stroke="#000000" stroke-width="0.5" stroke-miterlimit="10" x1="211.695" y1="267.974" x2="231.085" y2="248.583"/>
	
		<line fill="none" stroke="#000000" stroke-width="0.5" stroke-miterlimit="10" x1="211.934" y1="272.733" x2="233.041" y2="251.626"/>
	
		<line fill="none" stroke="#000000" stroke-width="0.5" stroke-miterlimit="10" x1="212.8" y1="276.868" x2="234.794" y2="254.873"/>
	
		<line fill="none" stroke="#000000" stroke-width="0.5" stroke-miterlimit="10" x1="214.077" y1="280.591" x2="236.299" y2="258.368"/>
	
		<line fill="none" stroke="#000000" stroke-width="0.5" stroke-miterlimit="10" x1="215.653" y1="284.015" x2="237.481" y2="262.186"/>
	
		<line fill="none" stroke="#000000" stroke-width="0.5" stroke-miterlimit="10" x1="217.463" y1="287.204" x2="238.207" y2="266.46"/>
	
		<line fill="none" stroke="#000000" stroke-width="0.5" stroke-miterlimit="10" x1="219.469" y1="290.198" x2="238.214" y2="271.453"/>
	
		<line fill="none" stroke="#000000" stroke-width="0.5" stroke-miterlimit="10" x1="221.651" y1="293.018" x2="236.949" y2="277.719"/>
	
		<line fill="none" stroke="#000000" stroke-width="0.5" stroke-miterlimit="10" x1="224.001" y1="295.666" x2="232.656" y2="287.012"/>
</g>
<line fill="none" stroke="#00DC49" stroke-width="3" stroke-miterlimit="10" stroke-dasharray="6" x1="224.5" y1="217" x2="224.5" y2="457"/>
<g>
	<g>
		<line fill="none" stroke="#666666" stroke-width="2.0883" stroke-miterlimit="10" x1="288" y1="336" x2="236.593" y2="322.705"/>
		<g>
			<path fill="#666666" d="M238.044,323.08l1.019,3.372l-0.117,0.041l-4.263-3.116c-1.562-0.792-3.123-1.584-4.684-2.377
				c1.75,0.064,3.499,0.128,5.249,0.191l5.239-0.658l0.086,0.075L238.044,323.08z"/>
		</g>
	</g>
</g>
<rect x="155" y="183.997" fill="none" width="150" height="30"/>
<text transform="matrix(1 0 0 1 164.1221 193.5596)"><tspan x="0" y="0" font-family="'Times-Roman'" font-size="14">destructive interference</tspan><tspan x="27.002" y="16.8" font-family="'Times-Roman'" font-size="14">(out of phase)</tspan></text>
<rect x="376" y="502" fill="none" width="60" height="8"/>
<text transform="matrix(1 0 0 1 376 507.4639)" font-family="'Times-Roman'" font-size="8">©mccord 2012</text>
</svg>
